<svg viewBox="0 0 48 48" fill="none" xmlns="http://www.w3.org/2000/svg">
    <rect x="1.41421" y="24" width="31.9411" height="31.9411" transform="rotate(-45 1.41421 24)" stroke="white"
        stroke-width="2" />
    <path fill-rule="evenodd" clip-rule="evenodd"
        d="M19.294 7.09631C14.5616 8.9685 11.77 14.6204 13.7447 22.6889C13.9147 23.404 15.2085 24.4253 15.3107 25.1062C15.3786 25.7874 14.2212 26.1278 14.1872 26.7404C14.1872 27.966 13.9829 29.0556 13.7447 30.0429L11.3274 29.4642C10.4761 30.4516 9.6931 31.3707 9.28445 32.358C9.01224 33.0728 8.84185 33.9241 9.21656 34.7414C15.7876 38.8608 26.9203 40.8694 33.5252 40.9377C34.5122 40.9716 34.8526 40.7673 35.1934 40.0525C35.2952 39.8139 35.4317 39.4734 35.5678 39.0648C35.8743 38.2478 36.1804 37.1244 36.453 35.7284C36.6912 34.3667 36.8616 32.7324 36.7934 31.0303C36.7934 30.1451 34.5804 29.4981 34.6483 28.579C34.6826 27.8982 36.4869 26.9448 35.84 25.617C34.3082 22.4849 34.7505 20.1015 35.6699 18.1951C36.5551 16.2543 38.3594 14.5861 41.0489 12.7818C41.8323 12.237 41.5937 11.0114 40.6406 10.8414L19.8727 7.02809C19.6684 6.9602 19.4641 7.02843 19.294 7.09631ZM19.8727 9.20711L37.9508 12.5096C36.1465 13.9395 34.5804 15.4373 33.7292 17.2759C32.5718 19.7611 32.5718 22.3145 33.8314 25.8895C34.1039 26.7065 31.8567 28.0343 31.9931 28.8173C32.1289 29.6342 34.5465 30.7238 34.5804 31.5068C34.6144 33.0389 34.5804 34.0945 34.3422 35.354C34.1378 36.6136 33.8996 37.6691 33.5591 38.3839C33.2527 38.8948 32.4018 38.4522 32.0953 37.3626C31.7545 36.0349 31.9249 35.3201 32.674 34.2988C27.0564 33.8219 21.4388 32.6645 15.8215 30.5537C16.1277 29.4981 16.332 28.8855 16.3659 27.4895C16.3659 26.8087 17.5233 26.7404 17.4215 25.9574C17.3536 25.1404 16.0255 23.0636 15.8215 22.1784C14.0169 14.9265 16.3659 10.7392 19.8727 9.20711ZM22.0517 9.92191L20.4175 11.284C19.7366 11.284 19.0897 11.6244 18.6471 12.1349L17.1832 12.4753L18.1024 13.4287C18.0005 14.1778 18.2385 14.9608 18.8175 15.4713L18.6471 17.5142L20.111 16.0503C20.8601 16.0843 21.6092 15.7778 22.0857 15.1991L23.3456 15.0287L22.6644 13.9052C22.7326 13.1562 22.4943 12.3731 21.9496 11.8627L22.0517 9.92191ZM20.5196 12.7136C20.5875 12.7136 20.69 12.7136 20.7579 12.7475C21.2687 12.9861 21.4048 13.6673 21.1326 14.1096C20.894 14.5861 20.2474 14.8247 19.8388 14.4839C19.328 14.1096 19.3962 13.3265 19.8388 12.9522C20.0088 12.7818 20.2814 12.6796 20.5196 12.7136ZM27.0224 15.6756L25.8307 16.4247L26.8524 18.0929L25.3199 18.8759L25.9669 20.1358L27.5672 19.3185L28.8607 21.3954L30.0523 20.6463L28.861 18.6716L30.8014 17.6843L30.1545 16.4247L28.1119 17.4463L27.0224 15.6756ZM23.7539 18.5355L23.073 18.6716C22.29 18.9099 21.507 19.3185 20.894 19.8972L21.8474 20.9528C22.4604 20.3741 23.2434 20.0337 24.0604 19.8972L23.7539 18.5355ZM19.9067 21.1911L19.6005 21.7358C19.4212 22.2054 19.2621 22.6825 19.1236 23.1657L19.0218 24.1531L20.4514 24.2892C20.4854 23.7444 20.5536 23.1997 20.7579 22.6892C20.8258 22.3827 20.9962 22.1445 21.1326 21.9062L19.9067 21.1911ZM20.5196 25.4469L19.1579 25.8213C19.328 26.4 19.4641 27.0126 19.8048 27.5235C19.9749 27.9321 20.2132 28.2725 20.4514 28.613L21.6088 27.7617C21.2687 27.2852 20.9622 26.7747 20.7579 26.1957L20.5196 25.4469ZM22.4604 28.613L21.6092 29.7704C22.3922 30.3833 23.3456 30.8259 24.2647 31.1664L24.8095 29.8729C23.9582 29.5321 23.1413 29.1917 22.4604 28.613ZM26.1372 30.4173L25.5585 31.7111C26.2733 32.0515 26.9881 32.4941 27.4307 33.2093L28.6224 32.4262C28.3502 31.9837 28.0098 31.6432 27.6011 31.3028C27.1463 30.956 26.6555 30.6591 26.1372 30.4173Z"
        fill="white" />
</svg>